# xmcd
#
# Track frame offsets: 
#        150
#        22163
#        45332
#        63930
#        85408
#        112844
#        138310
#        169584
#        187659
#        210086
#        230225
#        259598
#
# Disc length: 3652 seconds
#
# Revision: 0
# Processed by: cddbd v1.4PL0 Copyright (c) Steve Scherf et al.
# Submitted via: ExactAudioCopy v0.90b3
#
DISCID=920e420c
DTITLE=Larry McCray - Born To Play The Blues
DYEAR=1998
DGENRE=Blues
TTITLE0=Born To Play the Blues
TTITLE1=Smooth Sailing
TTITLE2=Feel So Damn Good
TTITLE3=Same Old Blues
TTITLE4=Sunny Monday
TTITLE5=I Wonder
TTITLE6=Worried Down With the Blues
TTITLE7=Woman Across the River
TTITLE8=Man On Bended Knee
TTITLE9=Sugar Coated Love
TTITLE10=Gone For Good
TTITLE11=I'm a Lover Not a Fighter
EXTD=
EXTT0=
EXTT1=
EXTT2=
EXTT3=
EXTT4=
EXTT5=
EXTT6=
EXTT7=
EXTT8=
EXTT9=
EXTT10=
EXTT11=
PLAYORDER=
